<?xml version="1.0" encoding="utf-8"?>
<!-- Generator: Adobe Illustrator 24.0.0, SVG Export Plug-In . SVG Version: 6.00 Build 0)  -->
<svg version="1.1" id="Layer_1" xmlns="http://www.w3.org/2000/svg" xmlns:xlink="http://www.w3.org/1999/xlink" x="0px" y="0px"
	 viewBox="0 0 92.7 94.9" style="enable-background:new 0 0 92.7 94.9;" xml:space="preserve">
<style type="text/css">
	.st0{fill:#FFFFFF;}
</style>
<g>
	<path class="st0" d="M45.9,4.3C22.4,4.3,3.3,23.4,3.3,47s19.1,42.6,42.6,42.6S88.6,70.5,88.6,47S69.5,4.3,45.9,4.3z M19.1,55
		c-3.3,0-5.8,0-7.4,0.1v-0.5c0.5,0,0.9-0.1,1.1-0.2c0.2-0.1,0.4-0.3,0.5-0.5c0.1-0.3,0.1-0.7,0.1-1.2V41.3c0-0.6,0-1-0.1-1.2
		s-0.2-0.4-0.5-0.5c-0.2-0.1-0.6-0.2-1.1-0.2v-0.5c0.8,0,2,0.1,3.6,0.1c1.5,0,2.7,0,3.6-0.1v0.5c-0.5,0-1,0.1-1.2,0.2
		s-0.4,0.3-0.5,0.5C17,40.3,17,40.7,17,41.3v11.6c0,0.5,0,0.8,0.1,1.1s0.2,0.4,0.4,0.5c0.2,0.1,0.5,0.1,0.9,0.1h1.1
		c0.7,0,1.3-0.2,1.9-0.6c0.6-0.4,1.1-1,1.5-1.8c0.4-0.8,0.7-1.7,0.8-2.7h0.5c0,0.5-0.1,1.2-0.1,2c0,1.5,0,2.7,0.2,3.6
		C23.3,55,21.5,55,19.1,55z M42,51.3c-0.7,1.3-1.6,2.3-2.9,3c-1.2,0.7-2.6,1.1-4.2,1.1c-1.6,0-3-0.3-4.2-1c-1.2-0.7-2.1-1.6-2.8-2.8
		c-0.7-1.2-1-2.7-1-4.4c0-1.7,0.3-3.2,1-4.5s1.6-2.3,2.9-3c1.2-0.7,2.6-1.1,4.2-1.1c1.6,0,3,0.3,4.2,1s2.2,1.6,2.8,2.8
		c0.7,1.2,1,2.7,1,4.4C43.1,48.5,42.7,50,42,51.3z M61.4,48.5c-0.3,0-0.5,0.1-0.7,0.2c-0.1,0.1-0.2,0.3-0.3,0.5
		c0,0.3-0.1,0.7-0.1,1.2V55h-0.5c0-0.3-0.1-0.6-0.2-0.9c-0.1-0.3-0.3-0.4-0.5-0.4c-0.2,0-0.7,0.2-1.2,0.5c-1.3,0.8-2.6,1.2-3.7,1.2
		c-1.8,0-3.2-0.3-4.5-1c-1.2-0.7-2.1-1.6-2.8-2.8s-0.9-2.7-0.9-4.4c0-1.7,0.3-3.2,1-4.5c0.7-1.3,1.7-2.3,2.9-3s2.7-1.1,4.3-1.1
		c0.9,0,1.7,0.1,2.4,0.4s1.3,0.6,1.9,1.1c0.2,0.1,0.3,0.2,0.5,0.2c0.2,0,0.3-0.1,0.4-0.3c0.1-0.2,0.2-0.6,0.2-1h0.5
		c-0.1,1-0.1,2.9-0.1,5.5h-0.5c-0.1-1-0.3-1.9-0.5-2.5c-0.2-0.6-0.6-1.2-1.2-1.6c-0.4-0.3-0.8-0.6-1.3-0.8c-0.5-0.2-1.1-0.3-1.6-0.3
		c-1.1,0-1.9,0.4-2.7,1.1c-0.7,0.7-1.2,1.7-1.6,2.9c-0.3,1.2-0.5,2.5-0.5,3.9c0,5.3,1.5,7.9,4.4,7.9c0.7,0,1.2-0.2,1.6-0.5
		c0.2-0.1,0.3-0.3,0.4-0.5c0.1-0.2,0.1-0.4,0.1-0.7V51c0-0.7-0.1-1.2-0.2-1.6s-0.3-0.6-0.6-0.7c-0.3-0.1-0.8-0.2-1.5-0.2v-0.5
		c0.9,0,2.2,0.1,3.9,0.1c1.4,0,2.4,0,3-0.1L61.4,48.5L61.4,48.5z M76.3,54.3c-1.2,0.7-2.6,1.1-4.2,1.1c-1.6,0-3-0.3-4.2-1
		c-1.2-0.7-2.2-1.6-2.8-2.8c-0.7-1.2-1-2.7-1-4.4c0-1.7,0.3-3.2,1-4.5s1.6-2.3,2.9-3c1.2-0.7,2.6-1.1,4.2-1.1c1.6,0,3,0.3,4.2,1
		c1.2,0.7,2.2,1.6,2.8,2.8c0.7,1.2,1,2.7,1,4.4c0,1.7-0.3,3.2-1,4.5C78.5,52.6,77.5,53.6,76.3,54.3z"/>
</g>
</svg>
