<?xml version="1.0" encoding="utf-8"?>
<!-- Generator: Adobe Illustrator 23.0.3, SVG Export Plug-In . SVG Version: 6.00 Build 0)  -->
<svg version="1.1" id="Layer_1" xmlns="http://www.w3.org/2000/svg" xmlns:xlink="http://www.w3.org/1999/xlink" x="0px" y="0px"
	 viewBox="0 0 24 10" style="enable-background:new 0 0 24 10;" xml:space="preserve">
<style type="text/css">
	.st0{fill:none;}
</style>
<path class="st0" d="M0-7h24v24H0V-7z"/>
<path d="M22,6h-8V4h8V6z M22,0h-8v2h8V0z M14,10h8V8h-8V10z M12,2v6c0,1.1-0.9,2-2,2H4c-1.1,0-2-0.9-2-2V2c0-1.1,0.9-2,2-2h6
	C11.1,0,12,0.9,12,2z M10.5,8L8.2,5L6.5,7.3L5.2,5.8L3.5,8H10.5z"/>
</svg>
