<?xml version="1.0" encoding="utf-8"?>
<!-- Generator: Adobe Illustrator 23.0.3, SVG Export Plug-In . SVG Version: 6.00 Build 0)  -->
<svg version="1.1" id="Layer_1" xmlns="http://www.w3.org/2000/svg" xmlns:xlink="http://www.w3.org/1999/xlink" x="0px" y="0px"
	 viewBox="0 0 92.65 94.89" style="enable-background:new 0 0 92.65 94.89;" xml:space="preserve">
<g>
	<path d="M45.93,4.32c-23.55,0-42.64,19.09-42.64,42.64S22.38,89.6,45.93,89.6c23.55,0,42.64-19.09,42.64-42.64
		S69.48,4.32,45.93,4.32z M19.1,54.96c-3.31,0-5.79,0.02-7.43,0.07v-0.46c0.51-0.02,0.87-0.08,1.1-0.18
		c0.23-0.1,0.39-0.27,0.47-0.53c0.09-0.26,0.13-0.67,0.13-1.25V41.3c0-0.57-0.04-0.99-0.13-1.25c-0.09-0.26-0.24-0.44-0.47-0.53
		c-0.23-0.1-0.6-0.16-1.1-0.18v-0.46c0.76,0.04,1.96,0.07,3.6,0.07c1.54,0,2.74-0.02,3.59-0.07v0.46c-0.55,0.02-0.95,0.08-1.2,0.18
		c-0.25,0.1-0.42,0.27-0.51,0.53C17.05,40.31,17,40.73,17,41.3v11.58c0,0.49,0.04,0.84,0.11,1.06c0.07,0.22,0.2,0.37,0.4,0.45
		c0.2,0.08,0.51,0.12,0.93,0.12h1.11c0.69,0,1.32-0.21,1.9-0.64c0.58-0.42,1.06-1.02,1.45-1.79c0.39-0.77,0.66-1.66,0.81-2.67h0.52
		c-0.04,0.52-0.07,1.19-0.07,2c0,1.46,0.05,2.66,0.16,3.61C23.29,54.99,21.55,54.96,19.1,54.96z M42.03,51.28
		c-0.69,1.29-1.64,2.29-2.87,3.01c-1.22,0.71-2.62,1.07-4.18,1.07c-1.61,0-3.02-0.33-4.24-0.98c-1.21-0.65-2.15-1.6-2.82-2.85
		c-0.66-1.24-1-2.72-1-4.44c0-1.68,0.34-3.16,1.02-4.45c0.68-1.29,1.64-2.29,2.86-3.01c1.23-0.71,2.62-1.07,4.19-1.07
		c1.6,0,3.01,0.33,4.23,0.98s2.15,1.6,2.82,2.85c0.67,1.24,1,2.72,1,4.44C43.06,48.5,42.72,49.99,42.03,51.28z M61.42,48.55
		c-0.31,0.03-0.53,0.09-0.67,0.18c-0.13,0.09-0.23,0.27-0.28,0.52c-0.05,0.26-0.08,0.67-0.08,1.25v4.52h-0.46
		c-0.02-0.32-0.08-0.62-0.19-0.89c-0.11-0.27-0.27-0.41-0.47-0.41c-0.25,0-0.66,0.16-1.24,0.48c-1.32,0.76-2.57,1.15-3.74,1.15
		c-1.75,0-3.24-0.33-4.45-0.97c-1.22-0.65-2.14-1.59-2.76-2.82c-0.62-1.23-0.93-2.7-0.93-4.43c0-1.7,0.35-3.2,1.05-4.49
		c0.7-1.3,1.68-2.3,2.93-3.01c1.25-0.71,2.67-1.07,4.27-1.07c0.93,0,1.73,0.13,2.38,0.38s1.29,0.62,1.91,1.1
		c0.19,0.14,0.34,0.21,0.46,0.21c0.16,0,0.28-0.11,0.37-0.32c0.09-0.22,0.16-0.56,0.21-1.05h0.52c-0.06,1.03-0.09,2.87-0.09,5.52
		h-0.53c-0.11-1.02-0.29-1.86-0.52-2.5c-0.24-0.64-0.63-1.19-1.18-1.63c-0.36-0.35-0.81-0.62-1.35-0.82c-0.53-0.2-1.08-0.3-1.64-0.3
		c-1.06,0-1.94,0.36-2.65,1.09c-0.71,0.72-1.23,1.68-1.56,2.87C50.4,44.3,50.23,45.6,50.23,47c0,5.26,1.46,7.9,4.38,7.9
		c0.66,0,1.2-0.15,1.61-0.46c0.2-0.13,0.34-0.29,0.42-0.48c0.08-0.19,0.12-0.42,0.12-0.71v-2.23c0-0.71-0.06-1.23-0.18-1.56
		s-0.33-0.56-0.64-0.68c-0.31-0.12-0.8-0.2-1.48-0.23v-0.46c0.88,0.05,2.18,0.08,3.9,0.08c1.4,0,2.42-0.03,3.05-0.08V48.55z
		 M76.29,54.28c-1.23,0.71-2.62,1.07-4.18,1.07c-1.61,0-3.02-0.33-4.24-0.98c-1.21-0.65-2.15-1.6-2.82-2.85
		c-0.66-1.24-1-2.72-1-4.44c0-1.68,0.34-3.16,1.02-4.45c0.68-1.29,1.64-2.29,2.86-3.01c1.23-0.71,2.62-1.07,4.19-1.07
		c1.6,0,3.01,0.33,4.23,0.98c1.21,0.65,2.15,1.6,2.82,2.85c0.67,1.24,1,2.72,1,4.44c0,1.68-0.34,3.16-1.03,4.45
		C78.47,52.57,77.51,53.57,76.29,54.28z"/>
</g>
</svg>
