<?xml version="1.0" encoding="utf-8"?>
<!-- Generator: Adobe Illustrator 24.0.0, SVG Export Plug-In . SVG Version: 6.00 Build 0)  -->
<svg version="1.1" id="Layer_1" xmlns="http://www.w3.org/2000/svg" xmlns:xlink="http://www.w3.org/1999/xlink" x="0px" y="0px"
	 viewBox="0 0 140.9 13.2" style="enable-background:new 0 0 140.9 13.2;" xml:space="preserve">
<style type="text/css">
	.st0{fill:#FFFFFF;}
</style>
<g>
	<path class="st0" d="M2,12.4H1V1h1V12.4z"/>
	<path class="st0" d="M16.7,12.4h-1L9.2,2.6v9.7h-1V1h1l6.6,9.7V1h1C16.7,1,16.7,12.4,16.7,12.4z"/>
	<path class="st0" d="M30.3,1.8h-3.9v10.6h-1V1.8h-3.9V1h8.8C30.3,1,30.3,1.8,30.3,1.8z"/>
	<path class="st0" d="M39.6,7.6h-3.3v4.7h-1V1H39c1.2,0,2.2,0.3,2.8,0.9s1,1.4,1,2.5c0,0.7-0.2,1.4-0.6,1.9s-1,0.9-1.7,1.2l2.8,4.8
		v0.1h-1L39.6,7.6z M36.3,6.8h3c0.8,0,1.5-0.2,2-0.7s0.7-1.1,0.7-1.8c0-0.8-0.3-1.4-0.8-1.9C40.6,2,39.9,1.8,39,1.8h-2.7V6.8z"/>
	<path class="st0" d="M57.1,7.3c0,1.1-0.2,2-0.5,2.8s-0.9,1.4-1.5,1.8s-1.5,0.6-2.3,0.6c-1.3,0-2.4-0.5-3.2-1.4
		c-0.8-0.9-1.2-2.2-1.2-3.8V6.1c0-1,0.2-1.9,0.5-2.8s0.9-1.4,1.6-1.8s1.5-0.6,2.3-0.6s1.7,0.2,2.3,0.6s1.2,1,1.5,1.8
		s0.5,1.7,0.6,2.7V7.3z M56.1,6.1c0-1.4-0.3-2.4-0.9-3.2s-1.5-1.2-2.5-1.2c-1.1,0-1.9,0.4-2.5,1.2c-0.6,0.8-0.9,1.9-0.9,3.3v1.2
		c0,1.3,0.3,2.4,0.9,3.2s1.5,1.2,2.5,1.2c1.1,0,1.9-0.4,2.5-1.2s0.9-1.9,0.9-3.2V6.1z"/>
	<path class="st0" d="M77.2,1.8h-3.9v10.6h-1V1.8h-3.9V1h8.8V1.8z"/>
	<path class="st0" d="M90.4,7.3c0,1.1-0.2,2-0.5,2.8s-0.9,1.4-1.6,1.8c-0.7,0.4-1.4,0.6-2.3,0.6c-1.3,0-2.4-0.5-3.2-1.4
		c-0.8-0.9-1.2-2.2-1.2-3.8V6.1c0-1,0.2-1.9,0.6-2.8s0.9-1.4,1.6-1.8s1.5-0.7,2.3-0.7s1.7,0.2,2.3,0.6s1.2,1,1.6,1.8
		s0.6,1.7,0.6,2.7V7.3z M89.5,6.1c0-1.4-0.3-2.4-0.9-3.2c-0.6-0.8-1.5-1.2-2.6-1.2c-1.1,0-1.9,0.4-2.5,1.2s-0.9,1.9-0.9,3.3v1.2
		c0,1.3,0.3,2.4,0.9,3.2s1.5,1.2,2.6,1.2c1.1,0,1.9-0.4,2.6-1.2s0.9-1.9,0.9-3.2C89.5,7.3,89.5,6.1,89.5,6.1z"/>
	<path class="st0" d="M105.2,9.3l0.3,1.8l0.4-1.7l2.5-8.4h0.9l2.4,8.4l0.4,1.7l0.4-1.8l2.1-8.3h1l-2.9,11.4h-0.9l-2.6-8.9l-0.3-1.1
		l-0.3,1.1l-2.6,8.9h-0.9L102.2,1h1L105.2,9.3z"/>
	<path class="st0" d="M127,6.9h-5.3v4.6h6.1v0.8h-7.1V1h7v0.8h-6.1v4.3h5.3V6.9z"/>
	<path class="st0" d="M133,12.4V1h3.4c1.2,0,2.1,0.2,2.8,0.8s0.9,1.2,0.9,2.2c0,0.6-0.2,1.1-0.5,1.5c-0.3,0.4-0.8,0.8-1.3,0.9
		c0.7,0.2,1.2,0.5,1.6,1s0.6,1.1,0.6,1.8c0,1-0.3,1.8-1,2.4s-1.6,0.9-2.7,0.9L133,12.4L133,12.4z M134,6.1h2.6
		c0.8,0,1.4-0.2,1.9-0.6s0.7-0.9,0.7-1.6c0-0.7-0.2-1.3-0.7-1.6c-0.5-0.4-1.1-0.5-2.1-0.5H134L134,6.1L134,6.1z M134,6.9v4.7h2.9
		c0.8,0,1.5-0.2,2-0.6c0.5-0.4,0.7-1,0.7-1.7c0-0.7-0.2-1.3-0.7-1.7s-1.1-0.6-1.9-0.6H134z"/>
</g>
</svg>
