<?xml version="1.0" encoding="utf-8"?>
<!-- Generator: Adobe Illustrator 23.0.3, SVG Export Plug-In . SVG Version: 6.00 Build 0)  -->
<svg version="1.1" id="Layer_1" xmlns="http://www.w3.org/2000/svg" xmlns:xlink="http://www.w3.org/1999/xlink" x="0px" y="0px"
	 viewBox="0 0 140.88 13.21" style="enable-background:new 0 0 140.88 13.21;" xml:space="preserve">
<g>
	<path d="M1.96,12.37H1V0.99h0.96V12.37z"/>
	<path d="M16.72,12.37h-0.96L9.22,2.63v9.73H8.25V0.99h0.97l6.55,9.74V0.99h0.95V12.37z"/>
	<path d="M30.3,1.8h-3.9v10.56h-0.96V1.8h-3.89V0.99h8.75V1.8z"/>
	<path d="M39.58,7.62h-3.3v4.74h-0.97V0.99h3.7c1.21,0,2.16,0.29,2.84,0.88c0.68,0.59,1.02,1.41,1.02,2.47
		c0,0.73-0.21,1.37-0.64,1.93c-0.43,0.56-1,0.94-1.72,1.15l2.84,4.84v0.1h-1.02L39.58,7.62z M36.28,6.81h2.95
		c0.81,0,1.46-0.23,1.95-0.69c0.49-0.46,0.73-1.05,0.73-1.78c0-0.8-0.26-1.43-0.77-1.87c-0.51-0.44-1.23-0.67-2.15-0.67h-2.71V6.81z
		"/>
	<path d="M57.1,7.29c0,1.05-0.18,1.97-0.54,2.76c-0.36,0.79-0.88,1.4-1.55,1.83c-0.67,0.43-1.45,0.64-2.33,0.64
		c-1.33,0-2.4-0.48-3.22-1.43c-0.82-0.95-1.23-2.23-1.23-3.85V6.08c0-1.04,0.18-1.95,0.55-2.75c0.37-0.8,0.89-1.41,1.56-1.84
		s1.45-0.64,2.32-0.64s1.65,0.21,2.32,0.63c0.67,0.42,1.19,1.02,1.55,1.79c0.36,0.77,0.55,1.66,0.57,2.68V7.29z M56.14,6.06
		c0-1.37-0.31-2.44-0.93-3.22c-0.62-0.78-1.47-1.16-2.55-1.16c-1.06,0-1.9,0.39-2.53,1.17c-0.63,0.78-0.94,1.87-0.94,3.26v1.19
		c0,1.35,0.31,2.42,0.94,3.21s1.47,1.18,2.55,1.18c1.09,0,1.94-0.39,2.55-1.17c0.61-0.78,0.91-1.86,0.91-3.25V6.06z"/>
	<path d="M77.22,1.8h-3.9v10.56h-0.96V1.8h-3.89V0.99h8.75V1.8z"/>
	<path d="M90.44,7.29c0,1.05-0.18,1.97-0.54,2.76c-0.36,0.79-0.88,1.4-1.55,1.83c-0.67,0.43-1.45,0.64-2.33,0.64
		c-1.33,0-2.4-0.48-3.22-1.43c-0.82-0.95-1.23-2.23-1.23-3.85V6.08c0-1.04,0.18-1.95,0.55-2.75c0.37-0.8,0.89-1.41,1.56-1.84
		S85.13,0.83,86,0.83s1.65,0.21,2.32,0.63s1.19,1.02,1.55,1.79c0.36,0.77,0.55,1.66,0.57,2.68V7.29z M89.48,6.06
		c0-1.37-0.31-2.44-0.93-3.22C87.93,2.07,87.08,1.68,86,1.68c-1.06,0-1.9,0.39-2.53,1.17c-0.63,0.78-0.94,1.87-0.94,3.26v1.19
		c0,1.35,0.31,2.42,0.94,3.21s1.47,1.18,2.55,1.18c1.09,0,1.94-0.39,2.55-1.17c0.61-0.78,0.91-1.86,0.91-3.25V6.06z"/>
	<path d="M105.25,9.29l0.35,1.77l0.43-1.69l2.47-8.38h0.87l2.44,8.38l0.42,1.7l0.38-1.78l2.05-8.3h0.98l-2.91,11.38h-0.92l-2.58-8.9
		l-0.29-1.12l-0.28,1.12l-2.64,8.9h-0.92l-2.91-11.38h0.98L105.25,9.29z"/>
	<path d="M126.98,6.91h-5.32v4.64h6.12v0.81h-7.08V0.99h7.04V1.8h-6.08v4.3h5.32V6.91z"/>
	<path d="M133,12.37V0.99h3.36c1.22,0,2.14,0.25,2.77,0.75s0.95,1.24,0.95,2.22c0,0.59-0.16,1.1-0.48,1.54
		c-0.32,0.44-0.76,0.75-1.32,0.93c0.66,0.15,1.19,0.47,1.6,0.98s0.61,1.09,0.61,1.75c0,1-0.32,1.79-0.97,2.35s-1.55,0.85-2.71,0.85
		H133z M133.96,6.09h2.62c0.8-0.02,1.42-0.2,1.86-0.57s0.66-0.89,0.66-1.58c0-0.73-0.23-1.27-0.68-1.62
		c-0.46-0.35-1.14-0.52-2.07-0.52h-2.4V6.09z M133.96,6.9v4.65h2.88c0.82,0,1.48-0.21,1.96-0.63c0.48-0.42,0.72-1,0.72-1.74
		c0-0.7-0.23-1.26-0.69-1.67s-1.1-0.61-1.91-0.61H133.96z"/>
</g>
</svg>
